# xmcd CD database file
# Copyright (C) 1993-1998 Ti Kan
#
# Track frame offsets:
#  150
#  9800
#  21425
#  34097
#  47932
#  60275
#  74700
#  95187
#  106475
#  120930
#  130337
#  143085
#  153400
#  170957
#
# Disc length: 2529 seconds
#
# Revision: 1
# Processed by: cddbd v1.4b41PL1 Copyright (c) Steve Scherf et al.
# Submitted via: CDWizzard Release:4.35
#
DISCID=c409df0e
DTITLE=Chet Atkins - Chet Atkins - Collector's Series
DYEAR=1900
DGENRE=
TTITLE0=Foggy Mountain Top
TTITLE1=Release Me
TTITLE2=Harper Valley PTA
TTITLE3=On the Road Again
TTITLE4=Folsom Prison Blues
TTITLE5=For the Good Times
TTITLE6=Chet's Medley
TTITLE7=Love Story Theme
TTITLE8=Yesterday
TTITLE9=Yakety Axe
TTITLE10=Georgy Girl
TTITLE11=Snowbird
TTITLE12=Chopin Waltz No. 10 in B minor
TTITLE13=I Can Hear Kentucky Calling Me
EXTD=
EXTT0=
EXTT1=
EXTT2=
EXTT3=
EXTT4=
EXTT5=
EXTT6=
EXTT7=
EXTT8=
EXTT9=
EXTT10=
EXTT11=
EXTT12=
EXTT13=
PLAYORDER=
